<svg xmlns="http://www.w3.org/2000/svg" width="1200" height="760" viewBox="0 0 1200 760" role="img" aria-labelledby="title desc">
  <title id="title">Community Helpers Pack Thumbnail</title>
  <desc id="desc">Bright educational thumbnail for community helpers curriculum pack.</desc>
  <defs>
    <linearGradient id="bg2" x1="0" y1="0" x2="1" y2="1">
      <stop offset="0%" stop-color="#e8fff5"/>
      <stop offset="60%" stop-color="#e9f4ff"/>
      <stop offset="100%" stop-color="#fff3dc"/>
    </linearGradient>
    <linearGradient id="panel2" x1="0" y1="0" x2="0" y2="1">
      <stop offset="0%" stop-color="#ffffff" stop-opacity="0.94"/>
      <stop offset="100%" stop-color="#ffffff" stop-opacity="0.84"/>
    </linearGradient>
  </defs>
  <rect width="1200" height="760" fill="url(#bg2)"/>
  <circle cx="1020" cy="100" r="120" fill="#0baf8a" opacity="0.16"/>
  <circle cx="180" cy="640" r="140" fill="#ffbf54" opacity="0.18"/>
  <rect x="56" y="52" width="1088" height="656" rx="42" fill="url(#panel2)" stroke="#12224a" stroke-opacity="0.1"/>
  <rect x="96" y="110" width="500" height="490" rx="30" fill="#dff9ef"/>
  <rect x="122" y="136" width="448" height="438" rx="24" fill="#ffffff"/>
  <rect x="150" y="174" width="180" height="120" rx="18" fill="#f03b83" fill-opacity="0.15"/>
  <rect x="362" y="174" width="180" height="120" rx="18" fill="#0baf8a" fill-opacity="0.16"/>
  <rect x="150" y="322" width="180" height="120" rx="18" fill="#5a6ea0" fill-opacity="0.14"/>
  <rect x="362" y="322" width="180" height="120" rx="18" fill="#ffbf54" fill-opacity="0.26"/>
  <rect x="150" y="470" width="392" height="34" rx="17" fill="#12224a" opacity="0.2"/>
  <text x="640" y="196" fill="#12224a" font-family="Sora, Arial, sans-serif" font-size="58" font-weight="800">COMMUNITY HELPERS</text>
  <text x="640" y="254" fill="#4f5c81" font-family="Plus Jakarta Sans, Arial, sans-serif" font-size="36" font-weight="700">Age 4-6 • Role-Play + Vocabulary</text>
  <rect x="640" y="304" width="460" height="66" rx="20" fill="#0baf8a" fill-opacity="0.16"/>
  <text x="670" y="347" fill="#087d63" font-family="Plus Jakarta Sans, Arial, sans-serif" font-size="30" font-weight="800">Cards + Scenarios + Worksheets</text>
  <rect x="640" y="404" width="460" height="66" rx="20" fill="#f03b83" fill-opacity="0.14"/>
  <text x="670" y="447" fill="#9f2660" font-family="Plus Jakarta Sans, Arial, sans-serif" font-size="30" font-weight="800">Differentiated for Mixed Levels</text>
  <rect x="640" y="504" width="460" height="66" rx="20" fill="#ffbf54" fill-opacity="0.24"/>
  <text x="670" y="547" fill="#a66a00" font-family="Plus Jakarta Sans, Arial, sans-serif" font-size="30" font-weight="800">English + Spanish Worksheet Set</text>
</svg>
